<svg width="294" height="37" viewBox="0 0 294 37" fill="none" xmlns="http://www.w3.org/2000/svg">
<g clip-path="url(#clip0_134_412)">
<path d="M0.000328332 0.476196H7.89341L11.5141 26.5593L15.1348 0.476196H22.9916V36.4505H17.7778V9.26836L13.6139 36.5238H8.94333L4.77944 9.26836V36.5238H-0.108398L0.000328332 0.476196Z" fill="white"/>
<path d="M38.4517 29.49H31.9705L31.0291 36.5238H25.8516L31.6448 0.549561H39.2119L45.0051 36.5238H39.5016L38.4517 29.49ZM37.7275 24.5812L35.193 6.2644L32.6947 24.5812H37.7275Z" fill="white"/>
<path d="M47.6484 0.476196H55.9397C61.7328 0.476196 64.195 3.18709 64.195 8.71877V10.9534C64.195 14.6167 63.0363 16.9979 60.5743 18.0236C63.3622 18.9028 64.195 21.6871 64.195 25.6435V31.9811C64.0881 33.4621 64.298 34.949 64.8104 36.3405H59.0897C58.6345 34.911 58.4624 33.4048 58.5829 31.9079V25.3504C58.5829 21.9801 57.6416 20.9178 54.9622 20.9178H53.0069V36.3405H47.4312L47.6484 0.476196ZM55.2517 15.8624C57.3517 15.8624 58.6192 14.9465 58.6192 12.199V9.41482C58.6192 6.85046 57.7501 5.75145 55.7587 5.75145H53.2242V16.0088L55.2517 15.8624Z" fill="white"/>
<path d="M67.1637 27.9881V26.1198H72.4498V28.5742C72.4498 31.1385 73.5724 32.2375 75.3465 32.2375C77.1206 32.2375 78.2793 31.285 78.2793 28.5742C78.2793 25.8633 77.0843 23.7385 73.4274 20.5147C68.7567 16.3385 67.1637 13.3713 67.1637 9.26836C66.9969 8.09794 67.0926 6.90435 67.4439 5.7765C67.7952 4.64864 68.3931 3.61543 69.1931 2.75328C69.993 1.89112 70.9745 1.22228 72.0648 0.796383C73.1551 0.370484 74.3262 0.198461 75.4912 0.293073C80.9223 0.293073 83.6378 3.59003 83.6378 9.37815V10.8436H78.3515V9.0119C78.3515 6.44755 77.3379 5.34854 75.5637 5.34854C73.7896 5.34854 72.7032 6.33765 72.7032 8.79211C72.7032 11.2466 73.9707 13.2613 77.6276 16.4851C82.2982 20.6613 83.8188 23.5921 83.8188 28.0615C83.9973 29.2519 83.9075 30.4676 83.556 31.6179C83.2046 32.7683 82.6006 33.8234 81.7892 34.7042C80.9779 35.585 79.98 36.2689 78.8706 36.7045C77.7612 37.1401 76.5687 37.3163 75.3825 37.2199C69.9153 37.11 67.1637 33.7396 67.1637 27.9881Z" fill="white"/>
<path d="M87.0054 0.476196H92.5812V15.1297H98.5554V0.476196H104.167V36.4505H98.5554V20.2585H92.5812V36.4505H87.0054V0.476196Z" fill="white"/>
<path d="M119.41 29.49H112.966L111.988 36.5238H106.811L112.604 0.549561H120.171L125.964 36.5238H120.388L119.41 29.49ZM118.723 24.5812L116.152 6.2644L113.69 24.5812H118.723Z" fill="white"/>
<path d="M128.607 0.476196H134.219V31.3217H143.416V36.4505H128.607V0.476196Z" fill="white"/>
<path d="M146.095 0.476196H151.743V31.3217H160.939V36.4505H146.131L146.095 0.476196Z" fill="white"/>
<path d="M171.729 0.476196H179.586L183.207 26.5593L186.827 0.476196H194.721V36.4505H189.434V9.26836L185.271 36.5238H180.708L176.545 9.26836V36.5238H171.657L171.729 0.476196Z" fill="white"/>
<path d="M198.812 27.9882V9.08508C198.736 7.90977 198.899 6.73119 199.292 5.62228C199.684 4.51337 200.297 3.49776 201.093 2.63819C201.889 1.77863 202.851 1.09359 203.919 0.625174C204.987 0.156754 206.138 -0.0849609 207.302 -0.0849609C208.467 -0.0849609 209.618 0.156754 210.686 0.625174C211.755 1.09359 212.716 1.77863 213.512 2.63819C214.308 3.49776 214.921 4.51337 215.313 5.62228C215.706 6.73119 215.869 7.90977 215.793 9.08508V27.9882C215.869 29.1635 215.706 30.3421 215.313 31.451C214.921 32.5599 214.308 33.5755 213.512 34.4351C212.716 35.2946 211.755 35.9799 210.686 36.4483C209.618 36.9167 208.467 37.1584 207.302 37.1584C206.138 37.1584 204.987 36.9167 203.919 36.4483C202.851 35.9799 201.889 35.2946 201.093 34.4351C200.297 33.5755 199.684 32.5599 199.292 31.451C198.899 30.3421 198.736 29.1635 198.812 27.9882ZM210.181 28.3544V8.71883C210.181 6.15448 209.095 5.05547 207.285 5.05547C205.474 5.05547 204.388 6.04458 204.388 8.71883V28.3544C204.388 30.9188 205.51 32.0178 207.285 32.0178C209.059 32.0178 210.036 30.9188 210.036 28.3544H210.181Z" fill="white"/>
<path d="M223.578 5.67811H217.748V0.476196H235.019V5.605H229.153V36.4505H223.578V5.67811Z" fill="white"/>
<path d="M237.083 27.9882V9.08508C237.007 7.90977 237.17 6.73119 237.562 5.62228C237.955 4.51337 238.568 3.49776 239.364 2.63819C240.159 1.77863 241.121 1.09359 242.189 0.625174C243.257 0.156754 244.409 -0.0849609 245.573 -0.0849609C246.737 -0.0849609 247.889 0.156754 248.957 0.625174C250.025 1.09359 250.987 1.77863 251.783 2.63819C252.578 3.49776 253.191 4.51337 253.584 5.62228C253.976 6.73119 254.139 7.90977 254.064 9.08508V27.9882C254.139 29.1635 253.976 30.3421 253.584 31.451C253.191 32.5599 252.578 33.5755 251.783 34.4351C250.987 35.2946 250.025 35.9799 248.957 36.4483C247.889 36.9167 246.737 37.1584 245.573 37.1584C244.409 37.1584 243.257 36.9167 242.189 36.4483C241.121 35.9799 240.159 35.2946 239.364 34.4351C238.568 33.5755 237.955 32.5599 237.562 31.451C237.17 30.3421 237.007 29.1635 237.083 27.9882ZM248.488 28.3544V8.71883C248.488 6.15448 247.365 5.05547 245.591 5.05547C243.817 5.05547 242.695 6.04458 242.695 8.71883V28.3544C242.695 30.9188 243.817 32.0178 245.591 32.0178C247.365 32.0178 248.488 30.9188 248.488 28.3544Z" fill="white"/>
<path d="M257.829 0.476196H266.121C271.914 0.476196 274.412 3.18709 274.412 8.71877V10.9534C274.629 12.3682 274.395 13.8162 273.744 15.0874C273.093 16.3586 272.059 17.3869 270.791 18.0236C273.579 18.9028 274.412 21.6871 274.412 25.6435V31.9811C274.324 33.4613 274.534 34.9442 275.027 36.3405H269.343C268.868 34.9154 268.695 33.4051 268.836 31.9079V25.3504C268.836 21.9801 267.859 20.9178 265.215 20.9178H263.296V36.3405H257.829V0.476196ZM265.469 15.8624C267.532 15.8624 268.8 14.9465 268.8 12.199V9.41482C268.8 6.85046 267.967 5.75145 265.976 5.75145H263.441V16.0088L265.469 15.8624Z" fill="white"/>
<path d="M277.345 27.9881V26.1198H282.631V28.5742C282.631 31.1385 283.753 32.2375 285.528 32.2375C287.302 32.2375 288.497 31.2851 288.497 28.5742C288.497 25.8633 287.265 23.7385 283.609 20.5147C278.938 16.3385 277.345 13.3713 277.345 9.26837C277.177 8.09465 277.273 6.89767 277.627 5.76689C277.98 4.63611 278.581 3.60073 279.385 2.73786C280.189 1.87498 281.176 1.20696 282.27 0.783646C283.365 0.360335 284.541 0.192615 285.709 0.293081C291.14 0.293081 293.819 3.59004 293.819 9.37816V10.8436H288.533V9.01191C288.533 6.44755 287.519 5.34854 285.745 5.34854C283.971 5.34854 282.884 6.33766 282.884 8.79212C282.884 11.2466 284.152 13.2613 287.809 16.4851C292.516 20.6613 294.036 23.5922 294.036 28.0615C294.194 29.2338 294.093 30.4269 293.739 31.5547C293.386 32.6825 292.789 33.7167 291.992 34.5826C291.195 35.4485 290.218 36.1243 289.131 36.5614C288.045 36.9985 286.876 37.1858 285.709 37.1099C280.096 37.1099 277.345 33.7396 277.345 27.9881Z" fill="white"/>
</g>
<defs>
<clipPath id="clip0_134_412">
<rect width="294" height="37" fill="white"/>
</clipPath>
</defs>
</svg>
