<svg width="40" height="49" viewBox="0 0 40 49" fill="none" xmlns="http://www.w3.org/2000/svg">
<path d="M14.291 42.8495C17.3192 42.8495 20.2233 41.6466 22.3645 39.5053C24.5058 37.364 25.7087 34.4597 25.7087 31.4315V8.56995H14.291V42.8495Z" fill="#DC040F"/>
<path d="M28.582 37.128C31.6102 37.128 34.5143 35.9249 36.6556 33.7836C38.7968 31.6423 39.9998 28.738 39.9998 25.7097V8.56995H28.582V37.128Z" fill="#DC040F"/>
<path d="M0 48.5713C1.50152 48.5713 2.98822 48.2751 4.37513 47.6997C5.76204 47.1243 7.02189 46.281 8.08245 45.2181C9.14302 44.1552 9.98354 42.8933 10.5558 41.5051C11.1282 40.1169 11.421 38.6295 11.4176 37.128V8.56995H0V48.5713Z" fill="#DC040F"/>
<path d="M39.9998 0H0V5.72168H39.9998V0Z" fill="#DC040F"/>
</svg>
