<svg width="67" height="67" viewBox="0 0 67 67" fill="none" xmlns="http://www.w3.org/2000/svg">
<path d="M2.10819 53.06C2.33963 54.0653 2.83133 54.9921 3.53398 55.7474C4.23663 56.5027 5.12553 57.06 6.11153 57.3633L6.71153 60H6.66153V66.6667H59.9949V60H15.6049C15.6486 59.692 15.6407 59.3788 15.5815 59.0733L14.9282 56.1967L49.4515 48.3433L50.1049 51.22C50.2789 51.9832 50.7488 52.6461 51.4114 53.063C52.0739 53.4798 52.8748 53.6167 53.6382 53.4433L56.5149 52.7867C56.893 52.7009 57.2505 52.5414 57.5669 52.3173C57.8833 52.0933 58.1525 51.8091 58.359 51.4809C58.5655 51.1527 58.7052 50.7871 58.7703 50.4049C58.8354 50.0226 58.8245 49.6313 58.7382 49.2533L57.9015 45.5767C59.3882 44.19 60.1349 42.09 59.6515 39.9667L57.6849 31.3333C57.4462 30.2932 56.9284 29.3379 56.1872 28.5702C55.4459 27.8026 54.5093 27.2516 53.4782 26.9767L46.6482 15.7167C45.641 14.0623 44.1398 12.766 42.3563 12.0106C40.5728 11.2552 38.5972 11.079 36.7082 11.5067L10.4815 17.4733C8.59047 17.9017 6.88234 18.9147 5.59952 20.3687C4.31669 21.8226 3.52433 23.6436 3.33486 25.5733L2.04486 38.68C1.23576 39.3747 0.631322 40.2769 0.296552 41.2894C-0.0382186 42.3019 -0.0906621 43.3866 0.14486 44.4267L2.10819 53.06ZM12.1749 50.7667C11.6082 50.8958 11.0217 50.9121 10.4487 50.8145C9.87579 50.717 9.32768 50.5075 8.83568 50.1982C8.34369 49.8888 7.91744 49.4855 7.58129 49.0114C7.24514 48.5373 7.00566 48.0017 6.87653 47.435C6.74739 46.8683 6.73113 46.2818 6.82868 45.7089C6.92623 45.1359 7.13566 44.5878 7.44504 44.0958C7.75441 43.6038 8.15766 43.1776 8.63176 42.8414C9.10587 42.5053 9.64154 42.2658 10.2082 42.1367C11.3526 41.8759 12.5537 42.0804 13.5474 42.7052C14.541 43.33 15.2457 44.3239 15.5065 45.4683C15.7673 46.6127 15.5628 47.8139 14.938 48.8075C14.3132 49.8011 13.3193 50.5059 12.1749 50.7667ZM49.5815 42.26C49.0052 42.4184 48.4027 42.4585 47.8105 42.3778C47.2182 42.2971 46.6485 42.0973 46.1355 41.7904C45.6226 41.4835 45.1771 41.0759 44.826 40.5922C44.4748 40.1085 44.2253 39.5587 44.0924 38.9759C43.9595 38.3932 43.946 37.7896 44.0527 37.2014C44.1594 36.6133 44.3841 36.0529 44.7132 35.554C45.0424 35.055 45.4692 34.6279 45.9679 34.2984C46.4666 33.9689 47.0268 33.7438 47.6149 33.6367C48.7367 33.4323 49.8941 33.6687 50.8459 34.2967C51.7977 34.9246 52.4705 35.8956 52.7241 37.0074C52.9776 38.1191 52.7924 39.2858 52.2069 40.2644C51.6215 41.2429 50.681 41.9578 49.5815 42.26ZM11.9582 23.9733L38.1882 18.0033C38.7138 17.8846 39.2634 17.9336 39.7597 18.1435C40.2559 18.3533 40.6739 18.7135 40.9549 19.1733L46.2382 27.8833L44.3515 28.3133L10.8649 35.9367L8.97153 36.3667L9.96819 26.2267C10.0218 25.6899 10.2428 25.1835 10.5999 24.7792C10.957 24.3748 11.4322 24.0929 11.9582 23.9733ZM54.6782 6.66667L49.9949 0L48.3282 10L56.6615 23.3333L66.6615 26.6667L59.9949 18.2033L66.6615 15.0933L59.9949 11.9833L66.6615 0L54.6782 6.66667Z" fill="#F4AB28"/>
</svg>
