<svg width="80" height="71" viewBox="0 0 80 71" fill="none" xmlns="http://www.w3.org/2000/svg">
<path d="M74.2564 36.1658L80 42.1651L53.2103 70.2042L38.9744 55.3124L44.7179 49.3131L53.2103 58.1631L74.2564 36.1658ZM28.718 55.3124L41.0256 68.0768H0V59.5672C0 50.1641 14.6872 42.548 32.8205 42.548L40.5744 43.016L28.718 55.3124ZM32.8205 0C37.1728 0 41.3468 1.79309 44.4243 4.98481C47.5018 8.17653 49.2308 12.5054 49.2308 17.0192C49.2308 21.533 47.5018 25.8619 44.4243 29.0536C41.3468 32.2453 37.1728 34.0384 32.8205 34.0384C28.4682 34.0384 24.2942 32.2453 21.2167 29.0536C18.1392 25.8619 16.4103 21.533 16.4103 17.0192C16.4103 12.5054 18.1392 8.17653 21.2167 4.98481C24.2942 1.79309 28.4682 0 32.8205 0Z" fill="#F4AB28"/>
</svg>
