<svg width="55" height="63" viewBox="0 0 55 63" fill="none" xmlns="http://www.w3.org/2000/svg">
<path d="M52.5 27.5H47.1875V10C47.1875 4.47656 42.7109 0 37.1875 0H17.8125C12.2891 0 7.8125 4.47656 7.8125 10V27.5H2.5C1.11719 27.5 0 28.6172 0 30V60C0 61.3828 1.11719 62.5 2.5 62.5H52.5C53.8828 62.5 55 61.3828 55 60V30C55 28.6172 53.8828 27.5 52.5 27.5ZM29.6875 46.0156V50.1562C29.6875 50.5 29.4062 50.7812 29.0625 50.7812H25.9375C25.5938 50.7812 25.3125 50.5 25.3125 50.1562V46.0156C24.6676 45.5526 24.1863 44.8969 23.9377 44.1429C23.6892 43.3889 23.6863 42.5755 23.9295 41.8198C24.1727 41.0641 24.6495 40.405 25.2911 39.9375C25.9327 39.4699 26.7061 39.218 27.5 39.218C28.2939 39.218 29.0673 39.4699 29.7089 39.9375C30.3505 40.405 30.8273 41.0641 31.0705 41.8198C31.3137 42.5755 31.3108 43.3889 31.0623 44.1429C30.8137 44.8969 30.3324 45.5526 29.6875 46.0156ZM41.5625 27.5H13.4375V10C13.4375 7.58594 15.3984 5.625 17.8125 5.625H37.1875C39.6016 5.625 41.5625 7.58594 41.5625 10V27.5Z" fill="#F4AB28"/>
</svg>
